<?xml version="1.0" standalone="no"?>
<!DOCTYPE svg PUBLIC "-//W3C//DTD SVG 20010904//EN"
 "http://www.w3.org/TR/2001/REC-SVG-20010904/DTD/svg10.dtd">
<svg version="1.0" xmlns="http://www.w3.org/2000/svg"
 width="840.000000pt" height="859.000000pt" viewBox="0 0 840.000000 859.000000"
 preserveAspectRatio="xMidYMid meet">

<g transform="translate(0.000000,859.000000) scale(0.100000,-0.100000)"
fill="#000000" stroke="none">
<path d="M3890 8459 c-444 -33 -924 -151 -1330 -326 -241 -104 -430 -207 -662
-360 -731 -482 -1298 -1195 -1604 -2016 -435 -1167 -327 -2469 295 -3552 270
-470 689 -938 1131 -1266 535 -396 1175 -665 1830 -768 232 -37 361 -46 650
-46 385 0 617 25 960 105 598 139 1170 419 1663 813 195 156 478 439 633 632
474 594 775 1284 879 2015 171 1193 -160 2358 -933 3290 -108 130 -365 389
-492 497 -847 712 -1925 1063 -3020 982z m1500 -2008 l0 -440 -322 -3 c-312
-3 -324 -4 -365 -25 -22 -12 -51 -35 -63 -50 -48 -61 -50 -76 -50 -404 l0
-309 405 0 c280 0 405 -3 405 -11 0 -33 -92 -884 -96 -891 -3 -4 -165 -8 -360
-8 l-354 0 0 -1285 0 -1285 -535 0 -535 0 0 1285 0 1285 -255 0 -255 0 0 455
0 455 255 0 255 0 0 358 c0 373 7 459 48 602 98 336 332 574 652 662 154 42
206 46 698 47 l472 1 0 -439z"/>
</g>
</svg>
