<?xml version="1.0" standalone="no"?>
<!DOCTYPE svg PUBLIC "-//W3C//DTD SVG 20010904//EN"
 "http://www.w3.org/TR/2001/REC-SVG-20010904/DTD/svg10.dtd">
<svg version="1.0" xmlns="http://www.w3.org/2000/svg"
 width="1000.000000pt" height="1000.000000pt" viewBox="0 0 1000.000000 1000.000000"
 preserveAspectRatio="xMidYMid meet">

<g transform="translate(0.000000,1000.000000) scale(0.100000,-0.100000)"
fill="#000000" stroke="none">
<path d="M4675 9689 c-864 -61 -1709 -365 -2405 -863 -389 -279 -775 -660
-1067 -1056 -579 -785 -903 -1778 -903 -2770 0 -720 169 -1445 486 -2079 248
-499 550 -912 948 -1298 673 -653 1537 -1094 2456 -1252 478 -82 933 -92 1417
-31 1286 164 2468 873 3221 1935 334 470 591 1023 726 1560 275 1098 157 2235
-334 3230 -232 470 -494 842 -850 1208 -523 539 -1138 929 -1858 1178 -560
194 -1231 281 -1837 238z m766 -1184 c181 -19 246 -30 434 -71 546 -121 1063
-391 1509 -786 l48 -44 -472 -454 c-259 -250 -475 -456 -480 -458 -5 -2 -47
28 -92 66 -287 242 -640 397 -1021 448 -165 23 -435 22 -592 -1 -625 -91
-1182 -448 -1525 -977 -131 -202 -234 -434 -289 -654 -60 -238 -66 -287 -66
-574 0 -282 6 -336 61 -555 93 -371 282 -715 547 -991 389 -408 926 -656 1467
-677 130 -5 395 10 506 28 471 79 864 285 1150 605 208 231 372 543 428 812
l14 68 -997 2 -996 3 -3 603 -2 602 1664 0 1663 0 16 -102 c32 -206 40 -338
34 -588 -14 -593 -125 -1077 -357 -1555 -369 -760 -990 -1308 -1795 -1585
-238 -82 -536 -145 -827 -175 -190 -19 -578 -20 -761 0 -819 87 -1546 434
-2127 1015 -455 454 -766 998 -925 1616 -118 458 -138 1005 -55 1493 62 362
201 756 382 1081 231 414 521 759 883 1049 526 423 1141 677 1825 756 160 18
582 18 751 0z"/>
</g>
</svg>
