<?xml version="1.0" standalone="no"?>
<!DOCTYPE svg PUBLIC "-//W3C//DTD SVG 20010904//EN"
 "http://www.w3.org/TR/2001/REC-SVG-20010904/DTD/svg10.dtd">
<svg version="1.0" xmlns="http://www.w3.org/2000/svg"
 width="820.000000pt" height="820.000000pt" viewBox="0 0 820.000000 820.000000"
 preserveAspectRatio="xMidYMid meet">

<g transform="translate(0.000000,820.000000) scale(0.100000,-0.100000)"
fill="#000000" stroke="none">
<path d="M3840 8050 c-91 -4 -201 -13 -245 -19 -109 -16 -242 -40 -290 -51
-22 -5 -80 -19 -130 -30 -260 -60 -533 -159 -800 -290 -177 -86 -260 -134
-445 -254 -499 -325 -934 -782 -1245 -1307 -74 -125 -214 -409 -265 -539 -93
-233 -177 -529 -219 -765 -49 -275 -53 -334 -53 -720 1 -344 3 -382 27 -545
29 -201 35 -230 64 -360 43 -190 123 -437 209 -645 37 -89 174 -358 242 -475
75 -129 193 -302 289 -425 180 -230 473 -524 671 -675 25 -19 47 -37 50 -40 3
-4 34 -26 69 -51 35 -24 91 -63 125 -87 185 -130 514 -304 756 -400 234 -93
549 -183 757 -217 555 -89 758 -95 1198 -36 128 18 271 41 338 56 37 8 96 21
131 29 173 39 464 137 656 223 73 32 316 156 394 201 567 325 1086 840 1426
1412 83 141 250 471 250 495 0 3 11 30 24 58 45 99 142 400 171 531 8 33 19
79 24 101 6 22 20 99 32 170 77 476 87 757 38 1100 -39 285 -54 369 -94 533
-159 655 -508 1296 -966 1777 -354 371 -690 620 -1151 851 -81 41 -149 74
-153 74 -3 0 -24 9 -48 19 -146 67 -407 153 -612 203 -152 36 -182 42 -390 72
-192 27 -541 38 -835 26z m-1077 -1710 c99 -26 141 -48 214 -114 160 -145 200
-403 95 -604 -32 -60 -131 -156 -194 -188 -165 -84 -402 -84 -565 0 -231 118
-322 422 -198 667 54 106 187 207 321 244 77 21 237 19 327 -5z m2885 -1315
c323 -62 566 -249 712 -550 68 -140 96 -236 125 -425 12 -78 15 -260 15 -1018
l0 -922 -472 2 -473 3 -5 860 c-6 846 -6 861 -28 939 -38 138 -106 246 -187
302 -73 50 -144 69 -260 69 -70 0 -127 -5 -155 -15 -170 -55 -301 -194 -352
-375 -8 -28 -14 -304 -17 -910 l-6 -870 -475 0 -475 0 2 1430 3 1430 472 0
473 0 3 -187 c1 -104 6 -188 10 -188 4 0 30 30 57 66 130 172 318 300 506 344
30 7 65 16 79 21 46 14 362 10 448 -6z m-2590 -1477 l-3 -1433 -459 -3 c-330
-1 -463 1 -472 9 -12 10 -14 244 -14 1429 0 779 3 1420 7 1423 3 4 217 7 475
7 l468 0 -2 -1432z"/>
</g>
</svg>
