<?xml version="1.0" standalone="no"?>
<!DOCTYPE svg PUBLIC "-//W3C//DTD SVG 20010904//EN"
 "http://www.w3.org/TR/2001/REC-SVG-20010904/DTD/svg10.dtd">
<svg version="1.0" xmlns="http://www.w3.org/2000/svg"
 width="920.000000pt" height="920.000000pt" viewBox="0 0 920.000000 920.000000"
 preserveAspectRatio="xMidYMid meet">

<g transform="translate(0.000000,920.000000) scale(0.100000,-0.100000)"
fill="#000000" stroke="none">
<path d="M1630 9189 c-223 -25 -411 -81 -615 -183 -365 -183 -638 -455 -822
-820 -100 -200 -157 -395 -182 -628 -14 -129 -15 -5782 -1 -5916 24 -231 85
-434 189 -639 183 -358 455 -628 812 -807 217 -108 402 -162 644 -186 78 -8
950 -10 3025 -8 l2915 4 103 21 c345 72 649 221 887 435 179 162 307 329 416
541 105 206 162 400 188 639 15 136 15 5780 0 5916 -25 230 -78 416 -178 617
-181 368 -458 647 -825 832 -199 100 -403 159 -628 183 -116 12 -5820 11
-5928 -1z m5790 -622 c283 -57 518 -173 704 -348 282 -264 428 -568 457 -953
7 -96 9 -985 6 -2771 -4 -2929 3 -2672 -72 -2910 -67 -213 -174 -387 -344
-555 -176 -175 -342 -278 -556 -345 -239 -75 24 -69 -2950 -71 -1571 -1 -2712
2 -2772 7 -347 31 -655 184 -902 445 -187 197 -308 443 -358 726 -17 98 -18
235 -18 2808 0 2573 1 2710 18 2808 61 347 220 622 493 856 87 74 251 173 359
217 114 45 293 88 410 98 55 5 1302 8 2770 7 2478 -2 2676 -3 2755 -19z"/>
<path d="M4349 7555 c-380 -62 -706 -226 -973 -492 -270 -267 -445 -621 -496
-1003 -15 -109 -15 -341 0 -449 131 -954 1006 -1619 1960 -1490 665 90 1227
574 1421 1223 68 229 89 520 54 750 -43 286 -156 554 -330 785 -258 343 -625
573 -1055 663 -126 26 -455 34 -581 13z"/>
<path d="M3104 4197 c-546 -323 -971 -798 -1220 -1362 -160 -361 -254 -774
-254 -1111 l0 -94 2972 0 2971 0 -6 153 c-23 541 -222 1120 -537 1557 -257
357 -608 676 -964 875 -79 44 -71 46 -197 -53 -174 -135 -391 -249 -624 -326
-209 -69 -395 -97 -649 -97 -228 0 -365 18 -557 72 -290 81 -576 230 -787 411
-18 15 -38 28 -45 28 -7 0 -53 -24 -103 -53z"/>
</g>
</svg>
